<svg xmlns="http://www.w3.org/2000/svg" viewBox="0 0 720 560" role="img" aria-labelledby="title desc"><title id="title">The Pebbi pocket world</title><desc id="desc">An original ceramic companion among a lilac memory bookmark, clay note, butter desk shape and clay voice dish. Decorative identity illustration, not actual task evidence.</desc><defs><radialGradient id="sceneglaze" cx=".32" cy=".2" r=".92"><stop stop-color="#FFF8E9"/><stop offset=".28" stop-color="#9CDBCB"/><stop offset="1" stop-color="#176B62"/></radialGradient><linearGradient id="scenerim" x2="0" y2="1"><stop stop-color="#FFF8E9" stop-opacity=".7"/><stop offset="1" stop-color="#9CDBCB" stop-opacity="0"/></linearGradient></defs><path d="M77 395C29 310 95 189 217 138C377 72 569 113 643 222C742 368 583 482 374 501C238 514 111 458 77 395Z" fill="#F4D878"/>
<ellipse cx="349" cy="436" rx="228" ry="52" fill="#35283E" opacity=".1"/>
<g transform="translate(424 84) rotate(16)"><rect width="165" height="200" rx="24" fill="#35283E" opacity=".12" transform="translate(0 9)"/><rect width="165" height="200" rx="24" fill="#CFBCEB"/><path d="M26 43H122M26 67H98" stroke="#35283E" stroke-width="7" stroke-linecap="round"/><path d="M47 108V160L82 144L117 160V108" fill="#FFF8E9" stroke="#35283E" stroke-width="3"/></g>
<g transform="translate(63 259) rotate(-14)"><rect width="172" height="130" rx="24" fill="#F2A18A"/><path d="M27 36H115M27 61H139M27 86H91" stroke="#35283E" stroke-width="7" stroke-linecap="round"/><path d="M134 111L151 97" stroke="#35283E" stroke-width="7" stroke-linecap="round"/></g>
<g transform="translate(167 172) scale(1.13)"><ellipse cx="167" cy="248" rx="111" ry="13" fill="#35283E" opacity=".13"/><path d="M38 177C36 135 55 83 96 58C139 30 203 38 240 72C272 101 291 148 282 189C274 226 226 239 171 238C115 240 58 226 43 201C39 195 38 186 38 177Z" transform="translate(0 7)" fill="#176B62"/><path d="M38 177C36 135 55 83 96 58C139 30 203 38 240 72C272 101 291 148 282 189C274 226 226 239 171 238C115 240 58 226 43 201C39 195 38 186 38 177Z" fill="url(#sceneglaze)" stroke="#176B62" stroke-width="2"/><path d="M76 102C100 62 162 49 202 70" fill="none" stroke="url(#scenerim)" stroke-width="11" stroke-linecap="round"/><ellipse cx="91" cy="176" rx="15" ry="8" fill="#F2A18A" transform="rotate(-15 91 176)"/><g fill="#35283E"><ellipse cx="122" cy="145" rx="8" ry="12"/><ellipse cx="208" cy="140" rx="8" ry="12"/></g><path d="M145 171Q166 192 188 169" fill="none" stroke="#35283E" stroke-width="7" stroke-linecap="round"/></g>
<g transform="translate(468 360) rotate(-12)"><ellipse cx="44" cy="39" rx="68" ry="45" fill="#176B62"/><ellipse cx="44" cy="30" rx="68" ry="45" fill="#F2A18A"/><path d="M14 20V40M30 7V50M46 0V59M62 11V49M78 20V40" stroke="#35283E" stroke-width="7" stroke-linecap="round"/></g>
<g transform="translate(114 117) rotate(-14)"><ellipse cx="0" cy="0" rx="42" ry="29" fill="#9CDBCB"/><path d="M-13 0L-3 10L16-11" fill="none" stroke="#35283E" stroke-width="5" stroke-linecap="round" stroke-linejoin="round"/></g></svg>
